<?xml version="1.0" standalone="no"?>
<!DOCTYPE svg PUBLIC "-//W3C//DTD SVG 20010904//EN"
 "http://www.w3.org/TR/2001/REC-SVG-20010904/DTD/svg10.dtd">
<svg version="1.0" xmlns="http://www.w3.org/2000/svg"
 width="1200.000000pt" height="1200.000000pt" viewBox="0 0 1200.000000 1200.000000"
 preserveAspectRatio="xMidYMid meet">
<metadata>
Created by potrace 1.11, written by Peter Selinger 2001-2013
</metadata>
<g transform="translate(0.000000,1200.000000) scale(0.100000,-0.100000)"
fill="#000000" stroke="none">
<path d="M5615 11904 c-856 -66 -1564 -260 -2294 -629 -1108 -559 -2033 -1484
-2595 -2595 -360 -711 -560 -1429 -627 -2250 -15 -187 -15 -683 0 -870 84
-1031 405 -1974 955 -2810 962 -1460 2500 -2415 4226 -2624 487 -59 1037 -54
1530 15 1125 157 2198 649 3060 1403 979 858 1649 2015 1904 3288 71 353 104
661 113 1038 42 1849 -776 3598 -2227 4759 -803 642 -1791 1072 -2805 1220
-305 45 -420 53 -810 56 -209 1 -402 1 -430 -1z m695 -974 l0 -140 -68 0 -67
0 -20 53 -21 52 -128 3 c-171 4 -166 8 -166 -151 0 -164 -8 -157 184 -157
l150 0 68 -67 68 -67 0 -190 0 -190 -67 -68 -67 -68 -253 0 -253 0 0 140 0
140 64 0 65 0 19 -52 20 -53 127 -3 c170 -4 165 -8 165 151 0 164 8 157 -184
157 l-150 0 -63 62 -63 62 0 200 0 200 62 63 62 63 258 0 258 0 0 -140z
m-1435 -40 l18 -61 -30 -32 -30 -32 123 -392 123 -392 -44 -84 -45 -84 -181
-56 -181 -56 -81 41 c-45 22 -84 46 -87 52 -2 6 -59 184 -125 395 l-120 384
-44 11 c-46 11 -54 23 -75 108 l-6 27 147 47 c82 25 152 47 156 48 5 0 18 -28
29 -63 l19 -64 -30 -31 -30 -31 112 -358 c77 -246 118 -362 130 -368 25 -14
243 55 257 81 8 14 -15 98 -103 378 l-112 360 -42 7 c-41 6 -42 7 -62 67 -12
34 -18 64 -15 67 8 9 298 99 305 95 3 -2 14 -30 24 -64z m2624 -50 c195 -60
355 -111 356 -112 1 -2 -18 -69 -43 -149 l-45 -146 -64 20 -63 21 0 68 c0 65
-1 69 -27 79 -16 6 -41 13 -58 16 l-30 5 -113 -364 c-62 -200 -112 -368 -112
-374 0 -6 11 -21 25 -34 14 -13 25 -30 25 -38 0 -31 -34 -122 -44 -119 -6 3
-74 23 -151 47 -77 23 -143 45 -146 49 -3 3 3 34 13 67 19 60 20 62 59 67 23
3 42 7 44 9 2 1 54 165 115 363 62 198 115 365 117 371 4 11 -74 44 -103 44
-6 0 -28 -24 -49 -54 -20 -30 -42 -53 -49 -51 -6 2 -34 11 -62 20 l-51 16 45
144 c25 80 49 145 52 145 3 0 165 -49 359 -110z m1380 -672 c166 -114 161
-108 176 -251 l6 -52 -244 -350 -244 -350 -93 -18 -92 -18 -97 66 c-53 37
-124 86 -157 108 l-62 42 -16 94 -17 94 53 76 c29 42 140 203 247 357 l194
281 86 15 c47 9 92 14 99 12 7 -2 79 -50 161 -106z m-5520 88 c40 -8 77 -18
81 -23 5 -4 117 -165 249 -356 l241 -349 -16 -92 -17 -92 -156 -109 -156 -108
-94 16 c-52 9 -98 22 -102 29 -4 7 -115 167 -247 356 l-239 344 16 88 c9 49
23 96 31 104 39 37 296 206 314 206 12 0 54 -6 95 -14z m6475 -939 c43 -54 75
-104 72 -110 -2 -7 -90 -154 -194 -327 -105 -173 -189 -316 -187 -318 2 -2 97
70 212 159 114 89 209 162 210 163 1 1 -2 19 -7 41 -9 38 -8 41 28 73 69 61
64 62 145 -40 40 -51 85 -109 100 -129 l27 -36 -55 -42 -55 -42 -37 20 -38 19
-375 -294 c-206 -161 -377 -293 -380 -293 -3 0 -33 36 -67 80 l-61 80 194 326
c107 179 193 327 192 329 -2 1 -95 -70 -208 -158 l-205 -160 2 -48 c2 -47 1
-49 -50 -88 l-52 -39 -93 119 c-51 66 -96 126 -98 133 -3 8 17 30 48 54 l53
40 33 -19 c18 -11 35 -20 36 -20 13 0 621 484 620 494 -1 6 -4 25 -8 42 -6 28
-3 34 46 72 41 32 56 38 64 29 6 -7 46 -56 88 -110z m-7554 67 c42 -34 45 -39
45 -84 l0 -49 304 -236 c211 -163 309 -234 320 -229 70 29 66 29 117 -11 27
-22 51 -40 52 -41 2 -2 -42 -61 -98 -133 l-102 -131 -54 43 c-50 38 -54 45
-48 72 4 17 7 36 8 43 1 11 -220 192 -235 192 -7 0 -168 -205 -172 -219 -1 -5
51 -50 115 -100 l118 -92 37 19 37 20 53 -41 c30 -22 52 -44 51 -48 -6 -17
-190 -249 -197 -249 -4 0 -29 17 -55 37 -47 36 -47 38 -42 82 l6 46 -305 235
c-168 129 -311 234 -317 233 -7 -1 -27 -7 -44 -14 -30 -12 -35 -10 -75 21 -24
18 -48 37 -53 41 -9 8 181 259 197 259 20 0 106 -76 102 -90 -19 -71 -25 -62
101 -159 64 -51 121 -90 126 -89 9 3 179 221 175 224 -1 1 -55 42 -120 93
l-118 91 -38 -19 -37 -19 -53 40 c-28 22 -51 44 -49 49 5 16 189 249 196 249
4 0 27 -16 52 -36z m3383 -1766 l-72 -73 -3 -164 -3 -163 -227 -82 -228 -81 0
-477 c0 -263 3 -478 8 -478 4 0 39 32 77 70 l69 70 708 0 708 0 0 354 0 354
70 48 c39 26 70 51 70 54 0 4 -102 43 -227 88 l-228 81 -72 -50 -73 -50 0 285
0 286 822 0 822 0 -71 -72 -72 -73 -3 -165 -3 -165 -222 -80 -223 -79 0 -1182
0 -1183 74 51 75 51 221 -79 222 -79 -24 -20 c-14 -11 -46 -35 -71 -52 l-47
-33 0 -160 0 -160 -677 0 -678 0 -72 -72 -73 -73 2 284 3 284 225 81 225 81 3
355 2 355 72 72 72 73 -857 0 -857 0 0 -481 0 -480 73 50 c40 28 77 51 81 51
16 0 436 -153 436 -159 0 -3 -30 -26 -65 -50 l-65 -44 0 -164 0 -163 -682 0
-683 0 -72 -72 -73 -73 2 284 3 283 228 81 227 82 0 1075 0 1075 70 49 c39 27
70 52 70 56 0 4 -102 44 -226 88 l-227 82 -61 -43 c-33 -24 -67 -47 -73 -51
-10 -6 -13 53 -13 278 l0 286 827 0 827 0 -71 -72z m3417 -4303 l95 -95 -46
-46 -46 -46 -52 23 -53 22 -94 -94 c-57 -57 -94 -102 -94 -114 0 -27 168 -195
195 -195 12 0 62 42 125 105 l105 105 100 0 100 0 132 -132 133 -133 0 -101 0
-101 -175 -172 c-96 -94 -179 -171 -183 -171 -4 0 -50 43 -102 95 l-95 95 47
47 47 47 51 -24 51 -24 94 94 c57 57 95 103 95 115 0 27 -168 195 -195 195
-13 0 -60 -40 -125 -105 l-105 -105 -101 0 -102 0 -131 137 -131 137 0 97 0
97 178 171 c97 94 179 171 182 171 3 0 48 -43 100 -95z m-5722 -257 c3 -6
-257 -383 -521 -755 -29 -41 -30 -44 -17 -83 l14 -41 -46 -46 -47 -46 -68 61
c-37 33 -90 83 -117 110 l-49 50 21 29 c11 15 32 39 46 52 24 23 26 23 64 8
l39 -16 39 56 39 56 -109 102 -109 103 -49 -36 c-42 -29 -49 -39 -44 -59 3
-12 9 -33 12 -45 4 -18 -5 -33 -40 -67 l-46 -45 -118 115 -118 114 47 49 48
50 40 -14 40 -13 238 174 c131 96 307 224 392 286 l154 113 131 -127 c72 -70
132 -131 134 -135z m4950 -937 l195 -383 -29 -90 -29 -90 -172 -86 -172 -86
-88 28 -88 28 -196 387 -197 386 29 90 28 90 173 86 173 86 89 -31 89 -31 195
-384z m-4028 329 c121 -61 220 -115 220 -120 0 -9 -107 -229 -116 -239 -2 -3
-30 8 -62 23 l-58 28 4 56 4 57 -117 58 c-76 38 -124 56 -136 52 -26 -9 -132
-219 -124 -245 4 -12 58 -46 143 -89 l138 -70 28 -88 28 -89 -85 -171 -86
-171 -91 -31 -92 -30 -221 111 c-122 60 -224 112 -227 115 -2 2 24 60 58 129
l62 124 59 -30 59 -29 -5 -58 -5 -58 119 -59 c97 -47 123 -57 139 -48 30 16
128 213 119 240 -5 17 -43 41 -141 90 l-134 67 -31 92 -30 92 88 172 88 173
80 27 c44 15 86 28 93 28 7 1 111 -49 232 -109z m1109 -345 c195 -30 356 -55
359 -55 5 0 -1 -56 -24 -205 l-16 -101 -63 10 c-70 10 -67 7 -80 99 -8 50 -6
49 -87 62 -36 5 -37 4 -43 -27 -3 -18 -30 -193 -60 -388 -61 -390 -61 -354 -2
-393 17 -11 17 -18 7 -80 -12 -66 -13 -68 -39 -63 -24 5 -285 46 -293 46 -2 0
1 31 6 69 l9 70 42 10 41 10 57 368 c31 202 57 378 57 389 0 17 -8 23 -37 28
-74 12 -77 10 -108 -54 -28 -60 -29 -60 -64 -54 -95 15 -93 14 -88 43 3 14 13
81 23 149 14 96 21 122 34 122 8 0 174 -25 369 -55z m1481 -23 l75 -57 29
-191 30 -191 -47 -65 -47 -66 68 -143 69 -144 45 -12 c44 -12 45 -13 52 -59
13 -97 25 -88 -149 -114 -85 -13 -157 -21 -160 -18 -3 3 -10 32 -15 64 -10 58
-9 60 19 84 l29 25 -64 133 c-71 147 -61 140 -171 121 -74 -13 -71 1 -40 -183
l22 -129 40 -11 c40 -11 40 -12 49 -74 5 -34 6 -65 3 -69 -7 -6 -268 -53 -298
-53 -24 0 -47 129 -26 141 7 5 23 16 35 26 l22 18 -60 375 c-33 206 -60 380
-60 386 0 6 -19 17 -43 24 l-44 12 -9 67 -9 68 285 45 c157 25 287 46 290 47
3 0 39 -26 80 -57z"/>
<path d="M8617 10058 c-129 -175 -387 -562 -387 -582 0 -20 19 -38 94 -90 54
-38 105 -66 119 -66 21 0 55 44 228 293 111 160 204 301 207 313 3 15 -7 29
-35 51 -76 60 -162 113 -182 113 -11 0 -31 -15 -44 -32z"/>
<path d="M3190 10021 c-61 -44 -96 -75 -98 -89 -4 -27 392 -600 424 -614 18
-9 37 0 122 58 83 57 101 74 102 95 0 17 -64 117 -200 314 -111 159 -206 293
-213 297 -23 15 -43 6 -137 -61z"/>
<path d="M2894 2958 c-99 -72 -186 -137 -194 -144 -12 -12 -4 -25 65 -94 44
-44 83 -80 86 -80 9 0 271 370 276 390 2 9 -9 25 -25 37 l-30 22 -178 -131z"/>
<path d="M7839 2325 c-68 -35 -108 -61 -111 -73 -7 -27 313 -664 338 -673 13
-4 55 12 126 47 82 41 109 60 114 78 4 17 -34 102 -157 342 -89 176 -163 320
-163 320 -1 1 -10 4 -21 7 -13 4 -58 -14 -126 -48z"/>
<path d="M6603 1931 c-56 -10 -104 -19 -107 -22 -4 -4 39 -288 45 -293 2 -1
61 6 130 17 98 16 129 24 138 38 14 23 -13 221 -35 257 -17 26 -29 26 -171 3z"/>
</g>
</svg>
